<?xml version="1.0" encoding="UTF-8" standalone="no"?>
<svg width="56px" height="79px" viewBox="0 0 56 79" version="1.1" xmlns="http://www.w3.org/2000/svg" xmlns:xlink="http://www.w3.org/1999/xlink">
    <!-- Generator: Sketch 3.6.1 (26313) - http://www.bohemiancoding.com/sketch -->
    <title>Group 4</title>
    <desc>Created with Sketch.</desc>
    <defs></defs>
    <g id="Page-1" stroke="none" stroke-width="1" fill="none" fill-rule="evenodd" opacity="0.3">
        <g id="Group-4" fill="#000000">
            <g id="Group" transform="translate(44.185461, 66.103627) rotate(-20.000000) translate(-44.185461, -66.103627) translate(33.685461, 54.103627)">
                <path d="M7.08225,-2.91322522e-13 L7.08225,1.40808511 L5.75,1.40808511 L5.75,11.2394043 L4.34825,11.2394043 L4.34825,12.6237447 L5.75,12.6237447 L5.75,14.0553191 L7.1285,14.0553191 L7.1285,12.6237447 L7.1285,11.2394043 L7.1285,1.40808511 L9.8625,1.40808511 L9.8625,-2.91322522e-13 L7.08225,-2.91322522e-13 Z" id="Shape"></path>
                <path d="M16.732,8.424 L16.732,7.03940426 L11.241,7.03940426 L11.241,1.40808511 L9.8625,1.40808511 L9.8625,9.83131915 L11.241,9.83131915 L11.241,8.44723404 L14.04375,8.44723404 L14.04375,9.83131915 L15.42225,9.83131915 L15.42225,8.44723404 L16.732,8.44723404 L16.732,9.83131915 L16.732,11.2394043 L18.1105,11.2394043 L18.1105,9.83131915 L19.48925,9.83131915 L19.48925,8.424 L16.732,8.424 Z" id="Shape"></path>
                <rect id="Rectangle-path" x="19.48925" y="9.83131915" width="1.37875" height="7.08638298"></rect>
                <path d="M18.06475,19.733617 L16.732,19.733617 L16.732,22.5490213 L8.47225,22.5490213 L8.47225,21.1177021 L7.1285,21.1177021 L7.1285,22.5490213 L7.1055,22.5490213 L7.1055,23.9571064 L16.732,23.9571064 L18.1105,23.9571064 L18.1105,19.733617 L19.443,19.733617 L19.443,16.9177021 L18.06475,16.9177021 L18.06475,19.733617 Z" id="Shape"></path>
                <rect id="Rectangle-path" x="5.75" y="19.733617" width="1.37875" height="1.38408511"></rect>
                <rect id="Rectangle-path" x="4.3715" y="18.3255319" width="1.3785" height="1.40808511"></rect>
                <rect id="Rectangle-path" x="1.56825" y="14.0553191" width="1.4245" height="1.45429787"></rect>
                <rect id="Rectangle-path" x="2.99275" y="15.509617" width="1.37875" height="2.81591489"></rect>
                <rect id="Rectangle-path" x="0.18975" y="11.2394043" width="1.3785" height="2.81591489"></rect>
                <rect id="Rectangle-path" x="1.56825" y="9.83131915" width="2.75675" height="1.40808511"></rect>
                <rect id="Rectangle-path" x="9.8625" y="14.4306383" width="1.3785" height="3.82468085"></rect>
                <rect id="Rectangle-path" x="12.59675" y="14.4306383" width="1.3785" height="3.82468085"></rect>
                <rect id="Rectangle-path" x="15.35325" y="15.4394043" width="1.37875" height="2.81591489"></rect>
            </g>
            <path d="M5.75,0.916666667 C3.04583333,0.916666667 0.857916667,3.12916667 0.857916667,5.83333333 L0.833333333,45.1666667 C0.833333333,47.8708333 3.02125,50.0833333 5.72541667,50.0833333 L35.25,50.0833333 C37.9541667,50.0833333 40.1666667,47.8708333 40.1666667,45.1666667 L40.1666667,15.6666667 L25.4166667,0.916666667 L5.75,0.916666667 L5.75,0.916666667 Z M22.9583333,18.125 L22.9583333,4.60416667 L36.4791667,18.125 L22.9583333,18.125 L22.9583333,18.125 Z" id="Shape"></path>
        </g>
    </g>
</svg>
