<?xml version="1.0" encoding="utf-8"?>
<!-- Generator: Adobe Illustrator 19.0.0, SVG Export Plug-In . SVG Version: 6.00 Build 0)  -->
<svg version="1.1" id="Layer_1" xmlns="http://www.w3.org/2000/svg" xmlns:xlink="http://www.w3.org/1999/xlink" x="0px" y="0px"
	 viewBox="0 0 24 24" style="enable-background:new 0 0 24 24;" xml:space="preserve">
<style type="text/css">
	.st0{fill:#fff;}
</style>
<path id="XMLID_2_" class="st0" d="M14.3,13.2c-0.4,0.7-1.2,1.2-2,1.2c-1.3,0-2.4-1.1-2.4-2.4s1.1-2.4,2.4-2.4c0.8,0,1.7,0.5,2,1.2
	c0.4,0,2.6,0,2.5,0c-0.5-2-2.4-3.6-4.6-3.6c-2.6,0-4.7,2.1-4.7,4.7s2,4.6,4.6,4.7c0,0,1.3,0,1.3,1.2S12,19.1,12,19.1
	C8.2,19,5.1,15.9,5.1,12s3.2-7.1,7.1-7.1s7.1,3.2,7.1,7.1c0,0,0,1.2-1.2,1.2C17.1,13.2,14.8,13.2,14.3,13.2z M22.5,9.6
	c-1.1,0-1.3-1.2-1.3-1.2c-1.5-3.4-4.9-5.9-8.9-5.9C7,2.5,2.8,6.8,2.8,12s4.3,9.5,9.5,9.5c4,0,7.4-2.5,8.8-5.9c0,0,0.4-1.2,1.3-1.2
	c1.4,0,1.2,1.2,1.2,1.2c-1.5,4.9-6.1,8.3-11.3,8.3C5.7,23.9,0.4,18.5,0.4,12S5.7,0.1,12.3,0.1c5.3,0,9.8,3.4,11.3,8.3
	C23.7,8.7,23.8,9.6,22.5,9.6z"/>
</svg>
